<svg xmlns="http://www.w3.org/2000/svg" width="28.458" height="30.615" viewBox="0 0 28.458 30.615">
  <g id="Group_10603" data-name="Group 10603" transform="translate(-229.119 -253.126)">
    <g id="Group_118" data-name="Group 118" transform="translate(229.119 253.126)">
      <path id="Path_127" data-name="Path 127" d="M271.04,460.142a1.155,1.155,0,0,0,1.16,1.16h.773a2.088,2.088,0,0,0,2.062,1.837h1.128a2.088,2.088,0,0,0,2.062-1.837H279a1.155,1.155,0,0,0,1.16-1.16V458.08h-9.12Z" transform="translate(-261.355 -432.524)" fill="#fff"/>
      <path id="Path_128" data-name="Path 128" d="M211.756,130.48a8.486,8.486,0,0,0-8.476,8.476,8.341,8.341,0,0,0,.258,2.03,13.365,13.365,0,0,0,3.19,5.9h10.055a15.3,15.3,0,0,0,1.515-1.966,13.321,13.321,0,0,0,1.676-3.932,8.339,8.339,0,0,0,.258-2.03,8.506,8.506,0,0,0-8.475-8.476Z" transform="translate(-197.494 -123.777)" fill="#fff"/>
      <path id="Path_129" data-name="Path 129" d="M333.109,17.928a1.018,1.018,0,0,0,1.031-1.031V15.027a1.031,1.031,0,0,0-2.063,0V16.9a1.06,1.06,0,0,0,1.031,1.031Z" transform="translate(-318.88 -13.996)" fill="#fff"/>
      <path id="Path_130" data-name="Path 130" d="M237.953,35.876a1.046,1.046,0,0,0,.934.644,1.61,1.61,0,0,0,.387-.065,1.031,1.031,0,0,0,.548-1.354l-.709-1.74a1.032,1.032,0,0,0-1.9.806Z" transform="translate(-229.396 -31.654)" fill="#fff"/>
      <path id="Path_131" data-name="Path 131" d="M160.422,88.411,159.1,87.09a1.025,1.025,0,0,0-1.45,1.45l1.321,1.321a1.012,1.012,0,0,0,1.418,0,1.022,1.022,0,0,0,.032-1.45Z" transform="translate(-154.217 -82.61)" fill="#fff"/>
      <path id="Path_132" data-name="Path 132" d="M105.91,167.924l-1.74-.709a1.032,1.032,0,1,0-.806,1.9l1.74.709a.816.816,0,0,0,.387.065,1,1,0,0,0,.934-.644.958.958,0,0,0-.515-1.321Z" transform="translate(-102.735 -158.32)" fill="#fff"/>
      <path id="Path_133" data-name="Path 133" d="M534.859,168.323a1.031,1.031,0,0,0-1.354-.548l-1.74.709a1.031,1.031,0,0,0-.548,1.354,1.046,1.046,0,0,0,.934.644,1.611,1.611,0,0,0,.387-.065l1.74-.709a1.077,1.077,0,0,0,.58-1.386Z" transform="translate(-506.482 -158.848)" fill="#fff"/>
      <path id="Path_134" data-name="Path 134" d="M488.022,87.649a1.051,1.051,0,0,0-1.45,0l-1.321,1.321a1.051,1.051,0,0,0,0,1.45,1.012,1.012,0,0,0,1.418,0L487.99,89.1A1.022,1.022,0,0,0,488.022,87.649Z" transform="translate(-462.965 -83.137)" fill="#fff"/>
      <path id="Path_135" data-name="Path 135" d="M415.258,35.933a.816.816,0,0,0,.387.065,1,1,0,0,0,.934-.644l.709-1.74a1.032,1.032,0,0,0-1.9-.806l-.709,1.74a1.13,1.13,0,0,0,.58,1.386Z" transform="translate(-396.678 -31.131)" fill="#fff"/>
    </g>
  </g>
</svg>
