<svg xmlns="http://www.w3.org/2000/svg" width="33.736" height="36.293" viewBox="0 0 33.736 36.293">
  <g id="Group_10566" data-name="Group 10566" transform="translate(283 -5.963)">
    <g id="Group_118" data-name="Group 118" transform="translate(-283 5.963)">
      <path id="Path_127" data-name="Path 127" d="M271.04,460.525a1.37,1.37,0,0,0,1.375,1.375h.917a2.475,2.475,0,0,0,2.445,2.178h1.337a2.475,2.475,0,0,0,2.445-2.178h.917a1.37,1.37,0,0,0,1.375-1.375V458.08H271.04Z" transform="translate(-259.559 -427.785)" fill="#fff"/>
      <path id="Path_128" data-name="Path 128" d="M213.327,130.48a10.059,10.059,0,0,0-10.047,10.047,9.888,9.888,0,0,0,.306,2.407,15.843,15.843,0,0,0,3.782,6.991h11.919a18.138,18.138,0,0,0,1.8-2.33,15.792,15.792,0,0,0,1.987-4.661,9.885,9.885,0,0,0,.306-2.407,10.084,10.084,0,0,0-10.047-10.047Z" transform="translate(-196.421 -122.534)" fill="#fff"/>
      <path id="Path_129" data-name="Path 129" d="M333.3,18.657a1.207,1.207,0,0,0,1.223-1.223V15.219a1.223,1.223,0,1,0-2.445,0v2.216a1.257,1.257,0,0,0,1.223,1.223Z" transform="translate(-316.433 -13.996)" fill="#fff"/>
      <path id="Path_130" data-name="Path 130" d="M238.106,36.459a1.24,1.24,0,0,0,1.108.764,1.908,1.908,0,0,0,.458-.076,1.222,1.222,0,0,0,.649-1.6l-.84-2.063a1.224,1.224,0,0,0-2.254.955Z" transform="translate(-227.961 -31.454)" fill="#fff"/>
      <path id="Path_131" data-name="Path 131" d="M160.99,88.71l-1.566-1.566a1.216,1.216,0,1,0-1.719,1.719l1.566,1.566a1.2,1.2,0,0,0,1.681,0,1.211,1.211,0,0,0,.038-1.719Z" transform="translate(-153.634 -81.833)" fill="#fff"/>
      <path id="Path_132" data-name="Path 132" d="M106.5,168.07l-2.063-.84a1.224,1.224,0,0,0-.955,2.254l2.063.84a.968.968,0,0,0,.458.076,1.181,1.181,0,0,0,1.108-.764,1.135,1.135,0,0,0-.611-1.566Z" transform="translate(-102.735 -156.686)" fill="#fff"/>
      <path id="Path_133" data-name="Path 133" d="M535.549,168.44a1.222,1.222,0,0,0-1.6-.649l-2.063.84a1.222,1.222,0,0,0-.649,1.6,1.24,1.24,0,0,0,1.108.764,1.91,1.91,0,0,0,.458-.076l2.063-.84a1.276,1.276,0,0,0,.688-1.643Z" transform="translate(-501.911 -157.208)" fill="#fff"/>
      <path id="Path_134" data-name="Path 134" d="M488.59,87.7a1.246,1.246,0,0,0-1.719,0L485.3,89.269a1.246,1.246,0,0,0,0,1.719,1.2,1.2,0,0,0,1.681,0l1.566-1.566a1.212,1.212,0,0,0,.038-1.719Z" transform="translate(-458.886 -82.354)" fill="#fff"/>
      <path id="Path_135" data-name="Path 135" d="M415.375,36.63a.968.968,0,0,0,.458.076,1.181,1.181,0,0,0,1.108-.764l.84-2.063a1.224,1.224,0,0,0-2.254-.955l-.84,2.063a1.34,1.34,0,0,0,.688,1.643Z" transform="translate(-393.35 -30.937)" fill="#fff"/>
    </g>
  </g>
</svg>
