<svg xmlns="http://www.w3.org/2000/svg" xmlns:xlink="http://www.w3.org/1999/xlink" width="88.882" height="93.86" viewBox="0 0 88.882 93.86">
  <defs>
    <clipPath id="clip-path">
      <path id="mask" d="M73.9,31h-41L42.96,40.586,32.684,50.349H73.9Z" transform="translate(-32.684 -31)" fill="#fff"/>
    </clipPath>
  </defs>
  <g id="Group_1" data-name="Group 1" transform="translate(0 0.001)">
    <g id="Group_1-2" data-name="Group 1" transform="translate(0 -0.001)">
      <path id="noun-challenge-3264256" d="M184.318,205.315a3.8,3.8,0,0,0-2.638,1.038,3.453,3.453,0,0,0-1.083,2.518v8.636H143.9a3.623,3.623,0,0,0-3.692,3.548V252.8a3.62,3.62,0,0,0,3.692,3.548h81.469A3.8,3.8,0,0,0,228,255.317a3.453,3.453,0,0,0,1.086-2.513V205.446Z" transform="translate(-140.208 -162.492)" fill="#fff"/>
      <path id="noun-challenge-3264256-2" data-name="noun-challenge-3264256" d="M352.373,0a3.534,3.534,0,0,0-1.933.629L348.912,42.82c-10.366,0,17.406-.01,7.068-.006V3.574A3.537,3.537,0,0,0,352.371,0Z" transform="translate(-272.716 0.002)" fill="#fff"/>
      <g id="Group_10683" data-name="Group 10683" transform="translate(36.581 3.628)" clip-path="url(#clip-path)">
        <path id="Path_1002" data-name="Path 1002" d="M48.915,31c-4.971,0-5.121,2.293-10.085,2.293C34.141,33.293,33.915,31,28.745,31c-5.312,0-5.312,2.293-10.085,2.293C13.706,33.293,13.706,31,8.575,31c-5.2,0-5.351,2.293-10.084,2.293C-6.787,33.293-6.577,31-11.593,31c-5.348,0-5.259,2.293-10.085,2.293S-27.163,31-31.763,31V48.535A31.52,31.52,0,0,0-21.679,50.4c4.846,0,5.3-1.864,10.085-1.864S-7.089,50.4-1.509,50.4s5.584-1.864,10.084-1.864c4.9,0,4.98,1.864,10.085,1.864,4.455,0,4.622-1.864,10.085-1.864,5.32,0,5.471,1.864,10.084,1.864,5.2,0,5.1-1.864,10.085-1.864V31Z" transform="translate(-7.698 -31)" fill="#fff"/>
      </g>
    </g>
  </g>
</svg>
