<svg xmlns="http://www.w3.org/2000/svg" width="29.173" height="28.173" viewBox="0 0 29.173 28.173">
  <g id="Group_10414" data-name="Group 10414" transform="translate(-275 -641)">
    <rect id="Rectangle_145" data-name="Rectangle 145" width="29.173" height="28.173" rx="3" transform="translate(275 641)" fill="#90afc4" opacity="0.1"/>
    <path id="noun-details-1861915" d="M187.548,140.753a.756.756,0,0,0-.757-.757h-9.08a.757.757,0,1,0,0,1.513h9.08a.756.756,0,0,0,.757-.757Zm0,4.54a.756.756,0,0,0-.757-.757h-9.08a.757.757,0,1,0,0,1.513h9.08a.756.756,0,0,0,.757-.757Zm0,4.54a.756.756,0,0,0-.757-.757h-9.08a.757.757,0,1,0,0,1.513h9.08a.756.756,0,0,0,.757-.757Zm0,4.54a.756.756,0,0,0-.757-.757h-22.7a.757.757,0,1,0,0,1.513h22.7a.756.756,0,0,0,.757-.757Zm0,4.54a.756.756,0,0,0-.757-.757h-22.7a.757.757,0,1,0,0,1.513h22.7a.756.756,0,0,0,.757-.757Zm-15.134-8.324h-7.566a1.513,1.513,0,0,1-1.514-1.513v-7.567A1.514,1.514,0,0,1,164.848,140h7.567a1.514,1.514,0,0,1,1.514,1.513v7.567a1.513,1.513,0,0,1-1.514,1.513Z" transform="translate(114.666 505.004)"/>
  </g>
</svg>
