<svg xmlns="http://www.w3.org/2000/svg" width="450.399" height="532.866" viewBox="0 0 450.399 532.866">
  <g id="Group_10672" data-name="Group 10672" transform="translate(-0.201 -0.739)">
    <path id="Path_991" data-name="Path 991" d="M67.722,613C55.795,609.749,52.271,600.262,52,595.925l217.393-.271,29.546,29.817,30.9-29.275,96.77-.542c-15.18,47.274-7.951,91.078-1.626,107.07H393.541l-30.359,28.191-32.257-28.191H65.553C57.692,694.592,52,676.16,60.674,664.233c6.939-9.541,6.144-17.89,4.879-20.872C56.445,629.483,63.2,617.339,67.722,613Z" transform="translate(-23.717 -272.395)" fill="#d0ad5b"/>
    <path id="Path_992" data-name="Path 992" d="M105.462,804C86.379,804,79.169,796.678,77,793.154H343.185L374.628,820.8l30.359-27.649h31.443c8.4,53.129,24.667,71.019,49.334,103.275H235.03c-7.807-17.131-17.168-27.92-20.872-31.172C203.316,854.631,199.7,838.6,199.25,831.916c1.355-23.04-7.048-20.872-12.2-23.04S129.315,804,105.462,804Z" transform="translate(-35.164 -362.825)" fill="#769f91"/>
    <path id="Path_993" data-name="Path 993" d="M8.494,448.072c5.5-4.587,24.4-35.328,33.342-50.418H171.945l32.8,30.088,29.546-30.088H447.348c-4.337,30.359-25.572,69.935-37.68,86.469l-6.777,21.414h-96.77l-30.9,29.275-30.088-29.275H28.281v-2.711c6.506-15.451,2.44-17.348,2.44-16.264C-13.734,486.021,1.447,453.952,8.494,448.072Z" transform="translate(0 -181.736)" fill="#9ca379"/>
    <path id="Path_994" data-name="Path 994" d="M75.706,309.17l-.079.114,129.949-.271,33.07,29.817,29.275-29.817H481.248c8.24-35.13-5.892-84.21-14.476-104.36H200.316L170.228,234.2l-30.9-29.546H101.24c-10.843,20.6-33.148,65.435-25.775,79.964C82.759,298.991,78.167,305.618,75.706,309.17Z" transform="translate(-33.79 -93.367)" fill="#cd7847"/>
    <path id="Path_995" data-name="Path 995" d="M124,111.259c138.243-203.625,333.409-78.309,365.665,0H223.481l-30.63,29.817-31.714-29.817Z" transform="translate(-56.684 0)" fill="#90afc4"/>
    <text id=":عنوان_التحدي" data-name=":عنوان التحدي" transform="translate(315.6 69.654)" fill="#fff" font-size="23" font-family="GESSTwoMedium-Medium, GE SS Two" font-weight="500"><tspan x="-141.496" y="0">:</tspan><tspan y="0">عنوان التحدي</tspan></text>
    <text id="وصف_التحدي" data-name="وصف التحدي" transform="translate(309.6 174.654)" fill="#fff" font-size="23" font-family="GESSTwoMedium-Medium, GE SS Two" font-weight="500"><tspan x="-134.849" y="0">وصف التحدي</tspan></text>
    <text id="وصف_وجود_التحدي" data-name="وصف وجود التحدي" transform="translate(309.6 282.654)" fill="#fff" font-size="23" font-family="GESSTwoMedium-Medium, GE SS Two" font-weight="500"><tspan x="-196.259" y="0">وصف وجود التحدي</tspan></text>
    <text id="الإجراءات_الحالية_لمعالجة_التحدي" data-name="الإجراءات الحالية لمعالجة التحدي" transform="translate(381.6 380.654)" fill="#fff" font-size="23" font-family="GESSTwoMedium-Medium, GE SS Two" font-weight="500"><tspan x="-331.66" y="0">الإجراءات الحالية لمعالجة التحدي</tspan></text>
    <text id="الفائدة_المرجوة_من_معالجة_التحدي" data-name="الفائدة المرجوة من 
معالجة التحدي" transform="translate(395.6 483.654)" fill="#fff" font-size="23" font-family="GESSTwoMedium-Medium, GE SS Two" font-weight="500"><tspan x="-197.34" y="0">الفائدة المرجوة من</tspan><tspan y="0"> </tspan><tspan x="-156.354" y="31">معالجة التحدي</tspan></text>
  </g>
</svg>
