<svg id="noun-light-1299639" xmlns="http://www.w3.org/2000/svg" width="112.414" height="108.761" viewBox="0 0 112.414 108.761">
  <path id="Path_897" data-name="Path 897" d="M498.411,235.2a2.81,2.81,0,0,0,0,5.62h14.052a2.81,2.81,0,1,0,0-5.62Z" transform="translate(-402.859 -184.051)" fill="#999"/>
  <path id="Path_898" data-name="Path 898" d="M128.811,240.819h14.052a2.81,2.81,0,1,0,0-5.62H128.811a2.811,2.811,0,0,0,0,5.621Z" transform="translate(-126.001 -184.05)" fill="#999"/>
  <path id="Path_899" data-name="Path 899" d="M344.422,47.239V34.17a2.81,2.81,0,1,0-5.62,0V47.238a2.81,2.81,0,0,0,5.62,0Z" transform="translate(-285.405 -31.36)" fill="#999"/>
  <path id="Path_900" data-name="Path 900" d="M463.731,93.245a2.717,2.717,0,0,0-3.935,0l-9.274,9.274a2.716,2.716,0,0,0,0,3.934,2.717,2.717,0,0,0,3.934,0l9.274-9.274a2.989,2.989,0,0,0,0-3.934Z" transform="translate(-368.46 -77.085)" fill="#999"/>
  <path id="Path_901" data-name="Path 901" d="M192.116,364.611a2.717,2.717,0,0,0,3.934,0l9.274-9.274a2.782,2.782,0,1,0-3.935-3.934l-9.274,9.274a2.989,2.989,0,0,0,0,3.935Z" transform="translate(-174.973 -270.464)" fill="#999"/>
  <path id="Path_902" data-name="Path 902" d="M201.076,106.451a2.717,2.717,0,0,0,3.934,0,2.717,2.717,0,0,0,0-3.935l-9.274-9.274a2.782,2.782,0,1,0-3.935,3.934Z" transform="translate(-174.659 -77.082)" fill="#999"/>
  <path id="Path_903" data-name="Path 903" d="M449.963,351.4a2.717,2.717,0,0,0,0,3.935l9.274,9.274a2.717,2.717,0,0,0,3.934,0,2.716,2.716,0,0,0,0-3.934L453.9,351.4a2.715,2.715,0,0,0-3.934,0Z" transform="translate(-368.041 -270.464)" fill="#999"/>
  <path id="Path_904" data-name="Path 904" d="M322.1,408.841V397.6H294v11.242a6.044,6.044,0,0,0,5.62,5.62h16.862a6.044,6.044,0,0,0,5.621-5.621Z" transform="translate(-251.845 -305.7)" fill="#999"/>
  <path id="Path_905" data-name="Path 905" d="M235.654,156.642a29.558,29.558,0,0,0,8.993,22.623,16.544,16.544,0,0,1,5.48,11.242h28.244a16.086,16.086,0,0,1,5.34-11.1,29.43,29.43,0,0,0,9.274-21.5,29.771,29.771,0,0,0-9.133-21.359,28.1,28.1,0,0,0-21.078-7.869c-14.614.7-26.558,13.068-27.12,27.963Zm16.441-.562a2.716,2.716,0,0,1,3.934,0l8.29,8.29,8.29-8.29a2.782,2.782,0,1,1,3.935,3.935l-9.415,9.556v12.506a2.81,2.81,0,1,1-5.62,0V169.57l-9.415-9.415A2.884,2.884,0,0,1,252.095,156.08Z" transform="translate(-208.113 -104.229)" fill="#999"/>
</svg>
