<svg xmlns="http://www.w3.org/2000/svg" width="37.197" height="79.5" viewBox="0 0 37.197 79.5">
  <g id="noun-light-1190173" transform="translate(-237.296 -39.13)">
    <path id="Path_136" data-name="Path 136" d="M243.043,39.131a.936.936,0,0,0-.866.953.96.96,0,0,0,.953.9H254.97V80.748h-7.6L237.3,96.112h37.2L264.415,80.748h-7.6V40.979h11.841a.924.924,0,1,0,0-1.849H243.044Z" transform="translate(0 0)" fill="#707070" fill-rule="evenodd"/>
    <path id="Path_137" data-name="Path 137" d="M292.46,395.65h18.982A14.044,14.044,0,0,1,292.46,395.65Z" transform="translate(-46.06 -297.684)" fill="#707070" fill-rule="evenodd"/>
    <path id="Path_138" data-name="Path 138" d="M344.814,462.459a.925.925,0,0,0-.91.937v7.765h0a.924.924,0,1,0,1.848,0V463.4h0a.924.924,0,0,0-.938-.937Z" transform="translate(-89.014 -353.468)" fill="#707070" fill-rule="evenodd"/>
    <path id="Path_139" data-name="Path 139" d="M268.115,452.53a.927.927,0,0,0-.641.265l-5.632,5.373a.924.924,0,1,0,1.276,1.337l5.632-5.373a.924.924,0,0,0-.634-1.6Z" transform="translate(-20.246 -345.177)" fill="#707070" fill-rule="evenodd"/>
    <path id="Path_140" data-name="Path 140" d="M387.935,455.439a.924.924,0,0,0-.607,1.6l5.788,5.521h0a.924.924,0,1,0,1.275-1.338L388.6,455.7h0a.928.928,0,0,0-.67-.264Z" transform="translate(-125.026 -347.606)" fill="#707070" fill-rule="evenodd"/>
  </g>
</svg>
