<svg xmlns="http://www.w3.org/2000/svg" width="27.341" height="27.249" viewBox="0 0 27.341 27.249">
  <g id="noun-action-2514117" transform="translate(-87.495 -19.25)">
    <path id="Path_732" data-name="Path 732" d="M474.778,148.75a2.278,2.278,0,1,0,2.278,2.278A2.281,2.281,0,0,0,474.778,148.75Zm0,3.645a1.367,1.367,0,1,1,1.367-1.367A1.369,1.369,0,0,1,474.778,152.4Z" transform="translate(-364.955 -122.756)" fill="#fff"/>
    <path id="Path_733" data-name="Path 733" d="M429.347,99.895h-.941l-.03-.059.67-.67a.684.684,0,0,0,0-.966l-.967-.966a.683.683,0,0,0-.967,0l-.685.666c-.013-.006-.029-.015-.042-.02v-.948a.684.684,0,0,0-.684-.684h-1.367a.684.684,0,0,0-.683.684v.95l-.059.021-.67-.67a.683.683,0,0,0-.966,0l-.967.966a.684.684,0,0,0,0,.966l.672.673-.026.055h-.947a.684.684,0,0,0-.684.684v1.367a.684.684,0,0,0,.684.684l.959.024.013.032-.672.672a.684.684,0,0,0,0,.966l.967.966a.684.684,0,0,0,.966,0l.685-.666c.013.006.029.015.042.02v.948a.684.684,0,0,0,.684.684H425.7a.684.684,0,0,0,.684-.684v-.95l.059-.021.67.67a.683.683,0,0,0,.966,0l.967-.966a.684.684,0,0,0,0-.966l-.672-.673.026-.055h.948a.684.684,0,0,0,.684-.683v-1.367a.685.685,0,0,0-.684-.684Zm-.228,1.823h-.72a.957.957,0,0,0-.667,1.613l.509.509-.645.644-.509-.509a.957.957,0,0,0-1.613.668v.719h-.911v-.719a.958.958,0,0,0-1.613-.668l-.509.509-.645-.644.738-.738a.456.456,0,0,0,.078-.54,2.419,2.419,0,0,1-.12-.255.929.929,0,0,0-.855-.589h-.72v-.911h.72a.957.957,0,0,0,.667-1.613l-.509-.509.645-.644.509.509a.957.957,0,0,0,1.613-.668v-.719h.911v.719a.957.957,0,0,0,1.613.668l.509-.509.645.644-.509.509a.958.958,0,0,0,.668,1.613h.72Z" transform="translate(-315.195 -72.99)" fill="#fff"/>
    <path id="Path_734" data-name="Path 734" d="M142.278,153.307A2.278,2.278,0,1,0,140,151.028,2.281,2.281,0,0,0,142.278,153.307Zm0-3.645a1.367,1.367,0,1,1-1.367,1.367A1.369,1.369,0,0,1,142.278,149.661Z" transform="translate(-49.771 -122.756)" fill="#fff"/>
    <path id="Path_735" data-name="Path 735" d="M88.179,99.894a.684.684,0,0,0-.684.684v1.367a.684.684,0,0,0,.684.684l.959.024.013.032-.672.672a.684.684,0,0,0,0,.966l.967.966a.684.684,0,0,0,.966,0l.685-.666c.014.006.029.015.043.02v.947a.684.684,0,0,0,.683.684h1.367a.684.684,0,0,0,.684-.684v-.95l.059-.021.67.67a.683.683,0,0,0,.966,0l.967-.966a.684.684,0,0,0,0-.966l-.672-.673.026-.055h.948a.684.684,0,0,0,.683-.684v-1.367a.684.684,0,0,0-.683-.684H95.9l-.03-.059.67-.67a.684.684,0,0,0,0-.966l-.967-.966a.683.683,0,0,0-.966,0l-.685.666c-.013-.006-.029-.015-.042-.02v-.948a.684.684,0,0,0-.684-.684H91.824a.684.684,0,0,0-.684.684v.95l-.059.021-.67-.67a.683.683,0,0,0-.966,0l-.967.966a.684.684,0,0,0,0,.966l.672.673c-.006.01-.022.045-.026.055Zm1.615-.7-.509-.509.645-.644.509.509a.957.957,0,0,0,1.613-.668V97.16h.911v.719a.957.957,0,0,0,1.613.668l.509-.509.645.644-.509.509a.957.957,0,0,0,.668,1.613h.72v.911h-.72a.957.957,0,0,0-.667,1.613l.509.509-.645.644-.509-.509a.957.957,0,0,0-1.613.668v.719h-.911v-.719a.958.958,0,0,0-1.613-.668l-.509.509-.645-.644.738-.738a.456.456,0,0,0,.078-.54,2.407,2.407,0,0,1-.12-.255.929.929,0,0,0-.855-.589h-.72v-.911h.72a.957.957,0,0,0,.668-1.613Z" transform="translate(0 -72.989)" fill="#fff"/>
    <path id="Path_736" data-name="Path 736" d="M121.5,267.055a4.547,4.547,0,0,0,1.834,3.645h-.221a4.146,4.146,0,0,0-1.562.309,8.383,8.383,0,0,1-3.129.6h-1.935a.456.456,0,0,0-.456.456H114.67a.912.912,0,0,0-.758,1.418l.033.049a1.82,1.82,0,0,0,1.517.811h.575a.456.456,0,0,0,.456.456h2.2a9.308,9.308,0,0,0,2.352-.3v2.58h.911v-3.19a.455.455,0,0,0-.6-.432,8.4,8.4,0,0,1-2.664.432h-1.749v-1.367h1.479a9.343,9.343,0,0,0,3.505-.683,3.181,3.181,0,0,1,1.185-.228h2.138L124.3,273.2a.456.456,0,0,0-.017.438l1.367,2.734a.456.456,0,0,0,.816,0l1.367-2.734a.456.456,0,0,0-.017-.438l-.953-1.588H129a3.24,3.24,0,0,1,1.223.244,9.3,9.3,0,0,0,3.467.668h1.48v1.367h-1.749a8.416,8.416,0,0,1-2.664-.432.455.455,0,0,0-.6.432v3.19h.911V274.5a9.31,9.31,0,0,0,2.352.3h2.2a.456.456,0,0,0,.456-.456h.636a1.82,1.82,0,0,0,1.517-.812l.033-.049a.911.911,0,0,0-.759-1.417h-1.427a.456.456,0,0,0-.456-.456h-1.935a8.438,8.438,0,0,1-3.167-.618A4.087,4.087,0,0,0,129,270.7h-.221a4.554,4.554,0,1,0-7.279-3.645Zm-6.043,6.379a.91.91,0,0,1-.759-.407l-.033-.049h1.367v.456Zm22.051-.455-.033.049a.909.909,0,0,1-.758.406h-.636v-.456Zm-11.451,2.17-.847-1.7.847-1.413.847,1.413Zm0-4.449a3.645,3.645,0,0,1-3.573-4.366,6.343,6.343,0,0,1,7.147,0,3.645,3.645,0,0,1-3.573,4.366Zm0-7.291a3.642,3.642,0,0,1,2.979,1.551,7.256,7.256,0,0,0-5.958,0A3.642,3.642,0,0,1,126.061,263.41Z" transform="translate(-24.896 -230.581)" fill="#fff"/>
    <path id="Path_737" data-name="Path 737" d="M290.117,341.706a.456.456,0,0,1-.456-.456h-.911a1.367,1.367,0,1,0,2.734,0h-.911A.456.456,0,0,1,290.117,341.706Z" transform="translate(-190.774 -305.231)" fill="#fff"/>
    <path id="Path_738" data-name="Path 738" d="M360.573,341.25a.456.456,0,0,1-.911,0h-.911a1.367,1.367,0,1,0,2.734,0Z" transform="translate(-257.129 -305.231)" fill="#fff"/>
    <path id="Path_739" data-name="Path 739" d="M175,315h.911v4.1H175Z" transform="translate(-82.948 -280.348)" fill="#fff"/>
    <path id="Path_740" data-name="Path 740" d="M113.75,332.5h.911v4.1h-.911Z" transform="translate(-24.888 -296.937)" fill="#fff"/>
    <path id="Path_741" data-name="Path 741" d="M481.25,315h.911v4.1h-.911Z" transform="translate(-373.25 -280.348)" fill="#fff"/>
    <path id="Path_742" data-name="Path 742" d="M542.5,332.5h.911v4.1H542.5Z" transform="translate(-431.31 -296.937)" fill="#fff"/>
    <path id="Path_743" data-name="Path 743" d="M288.75,21.437h5.468l-.729.547.547.729,1.823-1.367a.456.456,0,0,0,0-.729l-1.823-1.367-.547.729.729.547H288.75Z" transform="translate(-190.774)" fill="#fff"/>
  </g>
</svg>
