<svg xmlns="http://www.w3.org/2000/svg" width="27.288" height="27.289" viewBox="0 0 27.288 27.289">
  <path id="noun-challenge-3264248_1_" data-name="noun-challenge-3264248 (1)" d="M86.224,0a5.027,5.027,0,0,0-5.017,5.023v.152H76.022a.853.853,0,0,0-.851.849v5.181h-.15a5.023,5.023,0,0,0,0,10.047h.15v5.18h0a.853.853,0,0,0,.851.856H96.429a.853.853,0,0,0,.856-.856V20.4a.853.853,0,0,0-.856-.856h-1a3.317,3.317,0,1,1,0-6.634h1a.853.853,0,0,0,.856-.849V6.025a.853.853,0,0,0-.856-.849H91.248V5.024A5.033,5.033,0,0,0,86.224,0Z" transform="translate(-69.997)" fill="#fff"/>
</svg>
