<svg id="noun-finger-2579771" xmlns="http://www.w3.org/2000/svg" width="87.264" height="59.301" viewBox="0 0 87.264 59.301">
  <path id="Path_796" data-name="Path 796" d="M156.57,145.5c0,2.387-5.17.5-5.17-3.947V134a2.067,2.067,0,0,0-3.816-1.087l-6.285,8.851a2.059,2.059,0,0,0,3.357,2.383l2.619-3.686v1.093c0,1.018.638,5.056,1.77,5.788a7.271,7.271,0,0,0,1.332,8.894,7.366,7.366,0,0,0,0,10.617,7.371,7.371,0,0,0-1.6,8.4H135.988l-10.194-7.981a2.056,2.056,0,0,0-1.267-.438l-5.49-.005V139.5h5.348a2.066,2.066,0,0,0,1.705-.9c1.1-1.359,9.474-11.548,15.462-13.15a30,30,0,0,1,7.46-1.072c3.837,0,7.557.914,7.557,5.371v15.758Zm3.758,2.171h9.636c4.212.108,4.152,6.5-.082,6.5q-7.2,0-14.4-.005a3.245,3.245,0,0,1-3.086-4.266c2.766,1.283,6.642.969,7.931-2.231Zm5.434,31.876a7.387,7.387,0,0,0,5.907-11.779,7.364,7.364,0,0,0,2.024-10.54,7.36,7.36,0,0,0,2.8-9.555H194.9c9.7,0,9.7-14.747,0-14.747H160.7v-3.183c0-6.794-5.284-9.5-11.683-9.5a34.143,34.143,0,0,0-8.521,1.213c-6.658,1.787-14.823,11.175-17.08,13.908h-6.436a2.066,2.066,0,0,0-2.063,2.063v31.458a2.066,2.066,0,0,0,2.063,2.063h6.853l10.07,7.882a2.054,2.054,0,0,0,1.391.542l30.473.173Zm-5.066-42.5H194.9c4.271,0,4.271,6.5,0,6.5H160.7Zm-5.213,31.87h10.362c4.232.108,4.156,6.5-.082,6.5H155.476c-4.266,0-4.282-6.5.006-6.5Zm0-10.621H167.89c4.244.222,3.924,6.5-.168,6.5h-12.24c-4.2,0-4.38-6.5,0-6.5Z" transform="translate(-114.911 -120.25)"/>
</svg>
