<svg id="noun-vote-3693055" xmlns="http://www.w3.org/2000/svg" width="65.521" height="112.667" viewBox="0 0 65.521 112.667">
  <path id="Path_837" data-name="Path 837" d="M203.45,272.57h65.519v57.994H203.45Z" transform="translate(-203.45 -217.898)" fill="#fff"/>
  <path id="Path_838" data-name="Path 838" d="M305.07,55.921H292.607V43.457h12.463Zm-10.735-1.728h9.007V45.185h-9.007Z" transform="translate(-272.676 -40.002)" fill="#fff"/>
  <path id="Path_839" data-name="Path 839" d="M305.286,65.826l-3.11-3.676,1.319-1.115,1.9,2.242,3.957-3.957,1.222,1.222Z" transform="translate(-280.106 -52.319)" fill="#fff"/>
  <path id="Path_840" data-name="Path 840" d="M305.073,128.043H292.61V115.58h12.463Zm-10.735-1.728h9.007v-9.007h-9.007Z" transform="translate(-272.679 -96.002)" fill="#fff"/>
  <path id="Path_841" data-name="Path 841" d="M305.286,137.941l-3.11-3.677,1.319-1.115,1.9,2.242,3.957-3.957,1.222,1.222Z" transform="translate(-280.106 -108.312)" fill="#fff"/>
  <path id="Path_842" data-name="Path 842" d="M255.046,54.488H252.5V28H219.933V54.488h-1.192L203.458,78.836h65.519Zm-33.384-24.76h29.112V64.934H221.662Zm-4.112,39,1.728-3.91h.657v1.844H252.5V64.817h.657l1.728,3.91Z" transform="translate(-203.456 -28)" fill="#fff"/>
</svg>
