<svg xmlns="http://www.w3.org/2000/svg" width="11.474" height="14.786" viewBox="0 0 11.474 14.786">
  <g id="noun-dislike-4714595" transform="translate(11.474 14.786) rotate(180)">
    <path id="Path_668" data-name="Path 668" d="M10.776,8.726a1.1,1.1,0,0,1-.8.352H7.957a.231.231,0,0,0-.206.336,5.991,5.991,0,0,1,.7,2.5,3,3,0,0,1-.42,1.733,1.388,1.388,0,0,1-1.079.67,12.1,12.1,0,0,0-.9-3.371h0A5.1,5.1,0,0,0,4.129,8.773L4.11,8.761a2.922,2.922,0,0,1-.971-.808V1.587A2.9,2.9,0,0,1,5.42.462H9.377a1.082,1.082,0,0,1,1.035,1.055l.069.752H9.333a.231.231,0,0,0,0,.462h1.19l.165,1.808H9.54A.231.231,0,1,0,9.54,5h1.19l.165,1.807H9.747a.231.231,0,1,0,0,.462h1.189l.072.795a.859.859,0,0,1-.234.66Zm-8.1-.335H.462V1.219H2.676Zm8.793-.367-.6-6.549A1.536,1.536,0,0,0,9.377,0H5.42A3.355,3.355,0,0,0,3.126.915.231.231,0,0,0,2.908.758H.231A.231.231,0,0,0,0,.989V8.622a.231.231,0,0,0,.231.231H2.908a.23.23,0,0,0,.23-.217,3.4,3.4,0,0,0,.75.531c1.535.993,2.178,2.311,2.642,5.417h0a.23.23,0,0,0,.211.2c.046,0,.092.005.137.005a1.843,1.843,0,0,0,1.543-.879c.556-.836.8-2.4-.1-4.367H9.974a1.571,1.571,0,0,0,1.142-.5,1.315,1.315,0,0,0,.353-1.014Z" transform="translate(0)" fill="#ce7847" fill-rule="evenodd"/>
  </g>
</svg>
