<svg xmlns="http://www.w3.org/2000/svg" width="68.976" height="92.059" viewBox="0 0 68.976 92.059">
  <path id="noun-challenge-3264256" d="M195.717,0a2.876,2.876,0,0,0-1.573.512L170.32,12.422a2.877,2.877,0,0,0,0,5.141L192.9,28.852v6h-7.67a2.877,2.877,0,0,0-2.888,2.888V50.518H164.161a2.877,2.877,0,0,0-2.888,2.894v7.029h-18.2a2.877,2.877,0,0,0-2.865,2.888V89.17a2.875,2.875,0,0,0,2.865,2.888H206.3a2.877,2.877,0,0,0,2.888-2.888V37.735a2.877,2.877,0,0,0-2.888-2.888h-7.647V27.167c0-.03,0-.06,0-.09V2.91A2.878,2.878,0,0,0,195.716,0Z" transform="translate(-140.208 0.002)" fill="#fff"/>
</svg>
